<?xml version="1.0" encoding="UTF-8"?>
<svg width="105px" height="37px" viewBox="0 0 105 37" version="1.1" xmlns="http://www.w3.org/2000/svg" xmlns:xlink="http://www.w3.org/1999/xlink">
    <!-- Generator: sketchtool 42 (36781) - http://www.bohemiancoding.com/sketch -->
    <title>9813C208-98A1-42DF-82DA-1DA4DDBEDB05</title>
    <desc>Created with sketchtool.</desc>
    <defs></defs>
    <g id="Symbols" stroke="none" stroke-width="1" fill="none" fill-rule="evenodd">
        <g id="brand/logo-S" transform="translate(-78.000000, -12.000000)" fill="#0079C1">
            <g id="Page-1" transform="translate(78.000000, 12.000000)">
                <path d="M11.3021885,30.2757077 L11.3021885,20.9578615 C11.2146115,20.8994769 11.1494577,20.8626692 11.1046115,20.8474385 L7.45641923,21.3310154 L7.45641923,22.2761692 L8.97315,22.6713231 L8.97315,29.3309769 C8.49168846,29.6241692 7.99626538,29.8505154 7.48561154,30.0121308 C6.97538077,30.1729 6.55230385,30.2532846 6.21680385,30.2532846 C5.57668846,30.2532846 5.12357308,30.0819385 4.86126538,29.7375538 C4.59853462,29.3927462 4.46780385,28.8694 4.46780385,28.1658231 C4.46780385,26.9503231 4.46441923,25.7449769 4.45680385,24.5506308 C4.44918846,23.3567077 4.44580385,22.1589769 4.44580385,20.9578615 L4.24611154,20.8698615 L0.600034615,21.3530154 L0.600034615,22.2761692 C0.848803846,22.3493615 1.09799615,22.4191692 1.34761154,22.4855923 C1.59638077,22.5507462 1.84472692,22.6201308 2.09434231,22.6933231 L2.09434231,29.1105538 C2.09434231,30.2245154 2.36172692,31.0012846 2.89649615,31.4404385 C3.43126538,31.8804385 4.18138077,32.1000154 5.14895769,32.1000154 C5.47134231,32.1000154 5.83391923,32.0780154 6.23668846,32.0331692 C6.63945769,31.9900154 7.01726538,31.9240154 7.36841923,31.8360154 C7.88118846,31.3816308 8.41638077,30.8904385 8.97315,30.3632846 C8.98753462,30.3780923 9.00191923,30.3857077 9.01715,30.3857077 L9.52230385,31.9900154 L9.69830385,32.0555923 L12.9944962,31.6164385 L12.9944962,30.6712846 C12.7017269,30.5985154 12.41615,30.5320923 12.1381885,30.4737077 C11.8589577,30.4149 11.5809962,30.3497462 11.3021885,30.2757077" id="Fill-1"></path>
                <path d="M25.3232538,23.8585192 C25.3232538,22.7894038 25.0668692,22.0198269 24.5515615,21.5514808 C24.0379462,21.0822885 23.2874077,20.8483269 22.3029077,20.8483269 C21.9648692,20.8483269 21.5938308,20.8694808 21.1893692,20.9139038 C20.7849077,20.9579038 20.3994846,21.0234808 20.0318308,21.1119038 L18.4444462,22.6062115 C18.4300615,22.6062115 18.4224462,22.6019808 18.4224462,22.5952115 C18.4224462,22.5880192 18.4156769,22.5833654 18.4008692,22.5833654 L17.8948692,20.9794808 L17.6977154,20.8910577 C17.1845231,20.9794808 16.6683692,21.0607115 16.1479846,21.1334808 C15.6284462,21.2070962 15.1110231,21.2874808 14.5986769,21.3750577 L14.5986769,22.2982115 L16.1149846,22.6942115 L16.1149846,30.3193269 L14.4446769,30.9133269 L14.4891,31.8356346 L20.0051769,31.8356346 L20.0271769,30.8689038 L18.4444462,30.4073269 C18.4300615,29.0310577 18.4224462,27.7994808 18.4224462,26.7155577 L18.4224462,23.6605192 C18.9208308,23.3829808 19.4044077,23.1659423 19.8731769,23.0123654 C20.3419462,22.8592115 20.7815231,22.7822115 21.1910615,22.7822115 C21.8650231,22.7822115 22.3270231,22.9467885 22.5766385,23.2759423 C22.8254077,23.6055192 22.9502154,24.1220962 22.9502154,24.82525 L22.9502154,30.3413269 L21.3670615,30.8909038 L21.3894846,31.8356346 L26.8175615,31.8356346 L26.8624077,30.8689038 L25.3232538,30.4073269 L25.3232538,23.8585192 Z" id="Fill-3"></path>
                <path d="M30.1915154,16.6500923 C29.8907077,16.9428615 29.7405154,17.3024769 29.7405154,17.7264 C29.7405154,18.1524385 29.8792846,18.5141692 30.1580923,18.8149769 C30.4369,19.1149385 30.8096308,19.2659769 31.2784,19.2659769 C31.7336308,19.2659769 32.1059385,19.1149385 32.3999769,18.8149769 C32.6927462,18.5141692 32.8395538,18.1524385 32.8395538,17.7264 C32.8395538,17.3024769 32.6927462,16.9428615 32.3999769,16.6500923 C32.1059385,16.3573231 31.7336308,16.2109385 31.2784,16.2109385 C30.8536308,16.2109385 30.4910538,16.3573231 30.1915154,16.6500923" id="Fill-5"></path>
                <path d="M32.5209346,25.6499538 C32.5133192,24.0744154 32.5099346,22.4883 32.5099346,20.8916077 L32.3119346,20.8040308 L28.6861654,21.3531846 L28.6861654,22.2759154 C28.9311269,22.3495308 29.1803192,22.4193385 29.4328962,22.4849154 C29.6858962,22.5513385 29.9346654,22.6203 30.18005,22.6939154 L30.18005,30.2978769 L28.4661654,30.9350308 C28.4661654,31.0962231 28.4691269,31.2464154 28.4771654,31.3856077 C28.4839346,31.5252231 28.4949346,31.6749923 28.5101654,31.8361846 L34.2238192,31.8361846 C34.2238192,31.6749923 34.2267808,31.5252231 34.2348192,31.3856077 C34.2420115,31.2464154 34.2462423,31.0962231 34.2462423,30.9350308 L32.5539346,30.4074538 C32.5387038,28.8107615 32.5281269,27.2246462 32.5209346,25.6499538" id="Fill-7"></path>
                <path d="M45.3504038,21.0019038 C44.9620192,21.0167115 44.54825,21.0306731 44.1086731,21.0459038 C43.6686731,21.0602885 43.2553269,21.0755192 42.8669423,21.0894808 C42.4785577,21.1047115 42.2192115,21.1114808 42.0867885,21.1114808 L42.0867885,22.1006346 L43.4495192,22.5402115 C43.4050962,22.6277885 43.3251346,22.8334038 43.2079423,23.1553654 C43.0899038,23.47775 42.9511346,23.8661346 42.7903654,24.3200962 C42.62875,24.7744808 42.4569808,25.2614423 42.2742115,25.7814038 C42.0905962,26.3013654 41.9184038,26.78875 41.7580577,27.2431346 C41.5960192,27.6970962 41.45725,28.0892885 41.3400577,28.4192885 C41.2224423,28.7484423 41.1488269,28.95025 41.1196346,29.0230192 L41.0096346,29.0230192 L38.9230192,23.4629423 C38.7614038,23.0534038 38.6251731,22.6244038 38.5160192,22.1772115 C38.4055962,21.7312885 38.3357885,21.3310577 38.3070192,20.9799038 L34.5928269,21.1339038 L34.5928269,22.1222115 L35.7355577,22.5182115 C35.80875,22.6794038 35.9513269,23.0051731 36.1637115,23.4963654 C36.3765192,23.9871346 36.6214808,24.5620962 36.9002885,25.22125 C37.1786731,25.8808269 37.47525,26.5877885 37.7900192,27.3417115 C38.1056346,28.0960577 38.4022115,28.8030192 38.6801731,29.4625962 C38.9594038,30.1221731 39.2047885,30.7009423 39.4171731,31.1984808 C39.6295577,31.6964423 39.7717115,32.01925 39.8449038,32.1660577 L41.2300577,31.8800577 L44.1086731,25.19925 C44.4166731,24.4956731 44.7310192,23.8690962 45.05425,23.3199423 C45.3757885,22.7712115 45.7709423,22.3130192 46.2405577,21.9462115 L46.1305577,20.9799038 C45.9985577,20.9799038 45.7383654,20.9875192 45.3504038,21.0019038" id="Fill-9"></path>
                <path d="M55.6285923,22.4847462 C55.2909769,22.0083615 54.8264385,21.6199769 54.2324385,21.3200154 C53.6397077,21.0196308 52.8587077,20.8698615 51.8924,20.8698615 C50.8520538,20.8698615 49.9949,21.0382462 49.3213615,21.3750154 C48.6469769,21.7126308 48.1117846,22.1522077 47.7166308,22.6937462 C47.3206308,23.2361308 47.0430923,23.8474769 46.8814769,24.5286308 C46.7198615,25.2097846 46.6394769,25.9019385 46.6394769,26.6055154 C46.6394769,27.4702846 46.7350923,28.2424 46.9254769,28.9244 C47.1158615,29.6055538 47.4166692,30.1843231 47.8266308,30.6602846 C48.2365923,31.1358231 48.7717846,31.4992462 49.4309385,31.7480154 C50.0900923,31.9972077 50.8812462,32.1215923 51.8044,32.1215923 C52.5955538,32.1215923 53.3647077,32.0039769 54.1122846,31.7704385 C54.8594385,31.5360538 55.5109769,31.2276308 56.0673231,30.8477077 L55.6505923,29.6829769 C55.0489769,29.9321692 54.4740154,30.1039385 53.9257077,30.1982846 C53.3761308,30.2939 52.9327462,30.3417077 52.5955538,30.3417077 C51.9507846,30.3417077 51.4117846,30.2570923 50.9802462,30.0891308 C50.5478615,29.9203231 50.1962846,29.6677462 49.9259385,29.3305538 C49.6543231,28.9942077 49.4601308,28.5762077 49.3433615,28.0782462 C49.2253231,27.5802846 49.1673615,27.0010923 49.1673615,26.3419385 L56.3089,25.9683615 L56.5073231,25.7259385 C56.4925154,25.1848231 56.4269385,24.6276308 56.3089,24.0569 C56.1917077,23.4849 55.9653615,22.9611308 55.6285923,22.4847462 L55.6285923,22.4847462 Z M49.2113615,25.3096308 C49.2113615,25.0012077 49.2473231,24.6758615 49.3213615,24.3310538 C49.3941308,23.9870923 49.5219,23.6642846 49.7055154,23.3639 C49.8887077,23.0643615 50.1374769,22.8147462 50.4530923,22.6167462 C50.7678615,22.4195923 51.1748615,22.3201692 51.6724,22.3201692 C52.1115538,22.3201692 52.4644,22.3971692 52.7275538,22.5511692 C52.9911308,22.7047462 53.1963231,22.9023231 53.3427077,23.1443231 C53.4890923,23.3859 53.5876692,23.6570923 53.6397077,23.9574769 C53.6904769,24.2574385 53.7162846,24.5544385 53.7162846,24.8476308 L49.2113615,25.3096308 Z" id="Fill-11"></path>
                <path d="M66.2146115,20.6717769 C65.8482269,20.6717769 65.4932654,20.7310077 65.1484577,20.8477769 C64.8044962,20.9653923 64.4783038,21.1113538 64.1707269,21.2877769 C63.86315,21.4629308 63.5741885,21.6605077 63.3029962,21.8809308 C63.0318038,22.1005077 62.7859962,22.3128923 62.5668423,22.5180846 L62.5224192,22.4960846 L62.1492654,20.9577769 L61.9508423,20.8477769 L58.69865,21.3533538 L58.69865,22.2765077 L60.2149577,22.6725077 L60.2149577,30.2976231 L58.47865,30.9132 L58.52265,31.8359308 L64.2367269,31.8359308 L64.25915,30.9132 L62.5444192,30.4076231 L62.5444192,23.3092385 L66.1490346,23.5732385 C66.3825731,23.2800462 66.5619577,22.9428538 66.6867654,22.5616615 C66.8107269,22.1808923 66.8737654,21.8145077 66.8737654,21.4629308 C66.8737654,21.1701615 66.8077654,20.9653923 66.6766115,20.8477769 C66.5441885,20.7310077 66.3906115,20.6717769 66.2146115,20.6717769" id="Fill-13"></path>
                <path d="M75.3078885,26.7155154 C75.0218885,26.4519385 74.6775038,26.2171308 74.2751577,26.0119385 C73.8711192,25.8075923 73.4065808,25.5947846 72.8794269,25.3747846 C72.4542346,25.1992077 72.0844654,25.0456308 71.7692731,24.9136308 C71.4540808,24.7820538 71.1943115,24.6496308 70.9895423,24.5180538 C70.78435,24.3860538 70.6337346,24.2426308 70.5389654,24.0886308 C70.44335,23.9359 70.3963885,23.7565154 70.3963885,23.5513231 C70.3963885,23.1405154 70.5419269,22.8333615 70.8355423,22.6281692 C71.1283115,22.4229769 71.5090808,22.3201692 71.9782731,22.3201692 C72.1834654,22.3201692 72.4580423,22.3527462 72.8024269,22.4195923 C73.1463885,22.4847462 73.4873885,22.6201308 73.8245808,22.8257462 L74.6373115,24.6060538 L75.4724654,24.5180538 C75.4724654,24.0344769 75.47585,23.5542846 75.4838885,23.0779 C75.4906577,22.6023615 75.4940423,22.1230154 75.4940423,21.6385923 C74.9376962,21.3462462 74.3407346,21.1444385 73.7031577,21.0348615 C73.0660038,20.9244385 72.4906192,20.8698615 71.9782731,20.8698615 C71.2311192,20.8698615 70.6011577,20.9540538 70.0883885,21.1224385 C69.5751962,21.2912462 69.16185,21.5146308 68.8466577,21.7925923 C68.5314654,22.0714 68.3004654,22.3933615 68.1545038,22.7597462 C68.0076962,23.1261308 67.9340808,23.5069 67.9340808,23.9029 C67.9340808,24.3860538 68.0335038,24.7922077 68.2315038,25.1222077 C68.4290808,25.4522077 68.6926577,25.7373615 69.0226577,25.9797846 C69.3522346,26.2209385 69.7220038,26.4333231 70.1319654,26.6169385 C70.5419269,26.7997077 70.9595038,26.9875538 71.3851192,27.1766692 C71.7075038,27.3234769 72.0074654,27.4588615 72.2862731,27.5840923 C72.5642346,27.7080538 72.8096192,27.8438615 73.0220038,27.9906692 C73.2343885,28.1362077 73.3998115,28.3092462 73.5165808,28.5064 C73.63335,28.7044 73.6925808,28.9430154 73.6925808,29.2205538 C73.6925808,29.7337462 73.4835808,30.1039385 73.0660038,30.3302846 C72.64885,30.5579 72.1170423,30.6717077 71.4726962,30.6717077 C71.1799269,30.6717077 70.8313115,30.6239 70.4289654,30.5282846 C70.0257731,30.4330923 69.6708115,30.2757077 69.3632346,30.0561308 L68.4180808,28.0998231 C68.3004654,28.1302846 68.1722731,28.1548231 68.0335038,28.1768231 C67.8938885,28.1988231 67.7661192,28.2246308 67.6489269,28.2542462 L67.8249269,31.3524385 C68.2501192,31.6016308 68.7916577,31.7962462 69.4512346,31.9350154 C70.1103885,32.0742077 70.7919654,32.1440154 71.4946962,32.1440154 C72.3002346,32.1440154 73.0004269,32.0589769 73.5935808,31.8910154 C74.1871577,31.7226308 74.6736962,31.4916308 75.0548885,31.1988615 C75.4356577,30.9056692 75.71785,30.5579 75.9010423,30.1542846 C76.0842346,29.7527846 76.1756192,29.3161692 76.1756192,28.8469769 C76.1756192,28.3638231 76.1020038,27.9542846 75.9560423,27.6166692 C75.8092346,27.2794769 75.5930423,26.9790923 75.3078885,26.7155154" id="Fill-15"></path>
                <path d="M80.5843769,19.2658077 C81.0391846,19.2658077 81.4119154,19.1156154 81.7055308,18.8152308 C81.9987231,18.5144231 82.1455308,18.1518462 82.1455308,17.7262308 C82.1455308,17.3023077 81.9987231,16.9435385 81.7055308,16.6499231 C81.4119154,16.3575769 81.0391846,16.2103462 80.5843769,16.2103462 C80.1596077,16.2103462 79.7966077,16.3575769 79.4970692,16.6499231 C79.1962615,16.9435385 79.0460692,17.3023077 79.0460692,17.7262308 C79.0460692,18.1518462 79.1852615,18.5144231 79.4649154,18.8152308 C79.7424538,19.1156154 80.1151846,19.2658077 80.5843769,19.2658077" id="Fill-17"></path>
                <path d="M81.8267423,25.6499538 C81.8187038,24.0744154 81.8153192,22.4883 81.8153192,20.8916077 L81.6177423,20.8040308 L77.99155,21.3531846 L77.99155,22.2759154 C78.2369346,22.3495308 78.4857038,22.4193385 78.7387038,22.4849154 C78.9917038,22.5513385 79.2404731,22.6203 79.4858577,22.6939154 L79.4858577,30.2978769 L77.7719731,30.9350308 C77.7719731,31.0962231 77.7749346,31.2464154 77.7829731,31.3856077 C77.7901654,31.5252231 77.8003192,31.6749923 77.81555,31.8361846 L83.5292038,31.8361846 C83.5292038,31.6749923 83.5334346,31.5252231 83.5406269,31.3856077 C83.5478192,31.2464154 83.55205,31.0962231 83.55205,30.9350308 L81.8597423,30.4074538 C81.8445115,28.8107615 81.8335115,27.2246462 81.8267423,25.6499538" id="Fill-19"></path>
                <path d="M91.9669654,30.0778346 C91.4977731,30.1810654 91.1093885,30.26145 90.8013885,30.3189885 C90.4942346,30.3786423 90.1870808,30.4074115 89.8786577,30.4074115 C89.2931192,30.4074115 88.8861192,30.2682192 88.65935,29.9889885 C88.4321577,29.7097577 88.3187731,29.3057192 88.3187731,28.7768731 L88.3187731,22.3427192 L91.5709654,22.3427192 L91.5709654,21.1115654 L88.3187731,21.1115654 L88.3187731,18.34295 C88.2887346,18.3129115 88.2553115,18.2871038 88.2185038,18.26595 C88.1812731,18.2435269 88.1486962,18.2181423 88.1182346,18.1885269 L86.8769269,18.5625269 L86.0785808,20.8919885 C85.7845423,21.0083346 85.4981192,21.1145269 85.2197346,21.2105654 C84.94135,21.3061808 84.6625423,21.4115269 84.3850038,21.5291423 L84.3850038,22.3427192 L85.9448885,22.3427192 L85.9448885,28.8695269 C85.9448885,29.4406808 85.9897346,29.9280654 86.0781577,30.3308346 C86.1670038,30.7340269 86.3214269,31.0674115 86.5439654,31.3309885 C86.7660808,31.5945654 87.0647731,31.7891808 87.4421577,31.9131423 C87.8186962,32.0375269 88.2938115,32.0992962 88.8675038,32.0992962 C90.0250423,32.0992962 91.1758115,31.8251423 92.3185423,31.2755654 C92.2597346,31.0733346 92.2009269,30.8744885 92.1425423,30.6786038 C92.0833115,30.4835654 92.0249269,30.28345 91.9669654,30.0778346" id="Fill-21"></path>
                <path d="M104.503919,21.4848885 C104.481919,21.3245423 104.463304,21.1620808 104.448919,21.0013115 L100.40515,21.1333115 C100.40515,21.2945038 100.401342,21.4518885 100.39415,21.6058885 C100.387381,21.7594654 100.383573,21.9172731 100.383573,22.0776192 L101.745458,22.5400423 C101.321112,23.7415808 100.899304,24.9393115 100.48215,26.1328115 C100.064996,27.3271577 99.6436115,28.5325038 99.2188423,29.7484269 L99.1304192,29.7484269 C98.7932269,28.7080808 98.43065,27.6787346 98.0426885,26.6599654 C97.6543038,25.6420423 97.29215,24.6055038 96.9549577,23.5511962 C96.7933423,23.0820038 96.6693808,22.6280423 96.5809577,22.1884654 C96.4933808,21.7484654 96.4345731,21.3528885 96.4053808,21.0013115 L92.6920346,21.1553115 L92.6920346,22.1444654 L93.8347654,22.5400423 C94.4499192,24.1079654 95.0616885,25.66785 95.66965,27.2209654 C96.2776115,28.7736577 96.8893808,30.3267731 97.5045346,31.8798885 L98.2956885,31.9674654 L97.7461115,33.3966192 C97.6877269,33.5578115 97.6107269,33.7329654 97.5155346,33.9237731 C97.4203423,34.1137346 97.3065346,34.2977731 97.1749577,34.4729269 C97.0429577,34.6489269 96.8855731,34.8029269 96.7023808,34.9349269 C96.5191885,35.0669269 96.3106115,35.1549269 96.0758038,35.1985038 L94.1419192,34.0989269 C93.8487269,34.23135 93.6143423,34.42935 93.4391885,34.69335 C93.2631885,34.9569269 93.1751885,35.2272731 93.1751885,35.5065038 C93.1751885,35.93085 93.3723423,36.2642346 93.7683423,36.5062346 C94.1639192,36.7478115 94.6394577,36.8683885 95.1970731,36.8683885 C96.0614192,36.8683885 96.7899577,36.5760423 97.3839577,35.9900808 C97.9771115,35.40285 98.4712654,34.6265038 98.8668423,33.6597731 C99.4676115,32.2538885 100.068381,30.8471577 100.668727,29.44085 C101.269073,28.0336962 101.863496,26.6201962 102.449458,25.1995038 C102.742227,24.4959269 103.052765,23.8663885 103.383188,23.3091962 C103.712765,22.75285 104.104958,22.3056577 104.558919,21.9688885 C104.544535,21.8076962 104.525919,21.6465038 104.503919,21.4848885" id="Fill-23"></path>
                <path d="M29.4453346,10.2673423 L29.4876423,2.43068846 L31.4993731,1.94330385 L31.4147577,0.62965 C31.4147577,0.62965 30.5000654,0.712573077 29.4042962,0.712573077 C28.3081038,0.712573077 25.5052192,0.62965 25.5052192,0.62965 L25.39945,1.85826538 L27.2423731,2.45141923 L27.2423731,9.33572692 C27.2423731,9.90053462 27.1928731,10.4302269 27.0938731,10.9243808 C26.9957192,11.4189577 26.8235269,11.8458423 26.5768731,12.2058808 C26.3310654,12.5659192 25.9926038,12.8485346 25.5631808,13.0528808 C25.1341808,13.2580731 24.5960269,13.3600346 23.9482962,13.3600346 C23.2299115,13.3600346 22.6524115,13.2618808 22.2162192,13.0634577 C21.78045,12.8658808 21.4428346,12.6010346 21.2033731,12.2693423 C20.9643346,11.9380731 20.8056808,11.5530731 20.7282577,11.1147654 C20.6508346,10.6773038 20.6123346,10.2110731 20.6123346,9.71649615 L20.6123346,2.45141923 L22.5821808,1.96445769 L22.5187192,0.671957692 C22.5187192,0.671957692 22.0507962,0.754880769 20.22395,0.754880769 C18.3975269,0.754880769 15.5925269,0.671957692 15.5925269,0.671957692 L15.4863346,1.87984231 L17.3927192,2.47299615 L17.3927192,10.5854962 C17.3927192,11.5881885 17.5831038,12.41065 17.9642962,13.0528808 C18.3459115,13.6959577 18.8256808,14.2002654 19.4048731,14.5674962 C19.9836423,14.93515 20.6157192,15.1889962 21.3006808,15.3298808 C21.9852192,15.4707654 22.6312577,15.5418423 23.2383731,15.5418423 C23.9305269,15.5418423 24.6429885,15.4707654 25.3782962,15.3298808 C26.1114885,15.1889962 26.7786808,14.92415 27.3798731,14.5357654 C27.9793731,14.1473808 28.4705654,13.6113423 28.8521808,12.9259577 C29.2333731,12.2418423 29.43095,11.3550731 29.4453346,10.2673423" id="Fill-25"></path>
                <path d="M36.2695231,15.1395808 L37.2654462,15.1395808 C37.3919462,15.1395808 37.6178692,15.1429654 37.9427923,15.1501577 C38.2677154,15.15735 38.6099846,15.1641192 38.9704462,15.1713115 C39.3300615,15.1785038 39.6689462,15.1856962 39.9862538,15.1924654 C40.3044077,15.1996577 40.5062154,15.2026192 40.5904077,15.2026192 C41.5651769,15.2026192 42.4126,15.0799269 43.1322538,14.8324269 C43.8527538,14.58535 44.4666385,14.2604269 44.9751769,13.8576577 C45.4832923,13.4557346 45.9004462,12.9933115 46.2245231,12.4699654 C46.5490231,11.9483115 46.8003308,11.4156577 46.9767538,10.8711577 C47.1536,10.32835 47.2771385,9.79104231 47.3482154,9.26177308 C47.4184462,8.73208077 47.4535615,8.24850385 47.4535615,7.81061923 C47.4535615,6.93527308 47.3334077,6.06711923 47.0935231,5.20531154 C46.8532154,4.34435 46.4542538,3.57096538 45.8962154,2.88600385 C45.3390231,2.20104231 44.5935615,1.64638846 43.6619462,1.22373462 C42.7299077,0.799388462 41.5782923,0.587426923 40.2096385,0.587426923 C39.9549462,0.587426923 39.7040615,0.591657692 39.4569846,0.598003846 C39.2103308,0.606042308 38.9564846,0.616196154 38.6946,0.630580769 C38.4331385,0.644119231 38.1441769,0.654696154 37.8268692,0.661888462 C37.5082923,0.669080769 37.1516385,0.672888462 36.7564846,0.672888462 L35.9941,0.672888462 C35.7677538,0.672888462 35.5384462,0.669080769 35.3061769,0.661888462 C35.0726385,0.654696154 34.8255615,0.647503846 34.5641,0.640311538 C34.3030615,0.633965385 33.9887154,0.623388462 33.6219077,0.609003846 L33.4738308,1.90065769 L35.1678308,2.40919615 L35.1678308,13.4240038 L33.2830231,13.9955808 L33.4099462,15.2026192 C33.8051,15.1890808 34.1621769,15.1785038 34.4799077,15.1713115 C34.7976385,15.1641192 35.1005615,15.15735 35.3899462,15.1501577 C35.6793308,15.1429654 35.9729462,15.1395808 36.2695231,15.1395808 L36.2695231,15.1395808 Z M38.3878692,2.64231154 C38.5422923,2.62835 38.7178692,2.61819615 38.9146,2.61015769 C39.1117538,2.60381154 39.3097538,2.60000385 39.5060615,2.60000385 C40.1250231,2.60000385 40.7122538,2.67404231 41.2681769,2.82254231 C41.8236769,2.97061923 42.3123308,3.23546538 42.7345615,3.61708077 C43.1567923,3.99827308 43.4944077,4.52035 43.7474077,5.18373462 C44.0012538,5.84796538 44.1277538,6.69538846 44.1277538,7.72600385 C44.1277538,8.44608077 44.0571,9.14204231 43.9166385,9.81261923 C43.7757538,10.4831962 43.5472923,11.07635 43.2308308,11.5916577 C42.9139462,12.1069654 42.4921385,12.5165038 41.9645615,12.8202731 C41.4369846,13.1240423 40.7930615,13.2755038 40.0336385,13.2755038 C39.7797923,13.2755038 39.5031,13.2645038 39.2001769,13.2437731 C38.8972538,13.2230423 38.6264846,13.1841192 38.3878692,13.1274269 L38.3878692,2.64231154 Z" id="Fill-27"></path>
                <path d="M48.4656462,13.9529769 L48.5498385,15.2031692 L54.7144923,15.2031692 L54.7991077,13.8683615 L52.7023385,13.4237077 L52.5754154,4.37916923 L52.6600308,4.35759231 L55.7099923,8.38274615 L61.1960308,15.5204769 L62.8265692,15.1815923 C62.8265692,14.9417077 62.8341846,14.4936692 62.8481462,13.8370538 C62.8616846,13.1800154 62.8764923,12.4210154 62.8904538,11.5596308 C62.9044154,10.6986692 62.9188,9.7844 62.9327615,8.8164 C62.9467231,7.84966923 62.9644923,6.93159231 62.9852231,6.06301538 C63.0072231,5.19443846 63.0203385,4.43586154 63.0279538,3.78601538 C63.0351462,3.13701538 63.0457231,2.69151538 63.0601077,2.45205385 L65.2414923,1.94351538 L65.1568769,0.629861538 L59.0569538,0.629861538 L58.9719154,1.8589 L61.0056462,2.40932308 L61.1960308,10.1829385 L61.1114154,10.2045154 L58.5056846,6.75136154 L54.8629923,1.94351538 C54.7356462,1.77386154 54.6011077,1.57628462 54.4602231,1.35036154 C54.3189154,1.12486154 54.1852231,0.869746154 54.0578769,0.587553846 C53.6483385,0.601938462 52.9951077,0.619284615 52.0986077,0.640861538 C51.2016846,0.661592308 50.1317231,0.658630769 48.8891462,0.629861538 L48.7410692,1.8589 L50.9228769,2.47278462 L50.6474538,13.3602462 L48.4656462,13.9529769 Z" id="Fill-29"></path>
                <path d="M0.599696154,13.89345 L0.663580769,15.2320654 C0.663580769,15.2320654 2.92323462,15.1292577 4.17681154,15.1292577 C5.43081154,15.1292577 7.75435,15.2320654 7.75435,15.2320654 L7.81823462,13.89345 L5.72358077,13.3946423 L5.72358077,9.10760385 C5.99942692,9.17825769 6.73092692,9.34029615 7.65958077,9.34325769 L12.07735,15.9589115 L14.7253885,15.3653346 L14.9999654,14.4552962 L10.4256577,8.82668077 C12.08285,8.19587308 13.6731962,6.89152692 13.2264269,3.92702692 C12.6802346,0.307603846 8.69654231,0.61095 7.58427308,0.61095 C6.47158077,0.61095 3.63061923,1.12456538 1.14335,0.497988462 L0.78585,1.86918077 C0.78585,1.86918077 1.44669615,2.18014231 2.52935,2.42214231 L2.52935,13.4339885 L0.599696154,13.89345 Z M9.87354231,4.95637308 C9.87354231,6.35971923 9.05065769,7.81425769 5.72358077,7.24691154 L5.72358077,2.67683462 C5.83823462,2.66964231 5.95077308,2.66414231 6.06796538,2.65356538 C9.10100385,2.37010385 9.87354231,3.54033462 9.87354231,4.95637308 L9.87354231,4.95637308 Z" id="Fill-31"></path>
            </g>
        </g>
    </g>
</svg>